<svg xmlns="http://www.w3.org/2000/svg" viewBox="0 0 638.33765 638.33765"
   id="svg2">
  <defs
     id="defs6" />
  <path
     style="fill:#000000;stroke-width:1.24675322"
     d="m 43.57326,635.87586 c -3.81124,-3.81125 -4.29909,-8.12417 -2.75032,-24.31454 7.444351,-77.82082 60.76794,-140.39273 136.02591,-159.61796 13.93576,-3.56 33.70156,-5.55624 55.26412,-5.58137 l 20.88312,-0.0243 v -16.15872 -16.1587 l -9.66234,-7.11577 C 231.58696,398.2536 218.35983,385.12464 209.58139,373.40259 201.7864,362.99376 190.76288,341.619 186.72667,329.087 c -2.72655,-8.46571 -3.22753,-9.15677 -8.17588,-11.27787 -16.16432,-6.92883 -28.70816,-28.55956 -31.74661,-54.7442 -1.16642,-10.05194 -1.06611,-13.03519 0.66293,-19.71532 2.01202,-7.77341 6.78615,-16.10325 11.83235,-20.64496 l 2.5936,-2.33431 -3.81671,-5.54739 c -6.11265,-8.88444 -14.43285,-27.5582 -17.96532,-40.32115 -4.04822,-14.62637 -5.55601,-42.9361 -3.10244,-58.25059 3.03507,-18.944034 11.07458,-39.429589 21.89215,-55.783679 6.37222,-9.633558 21.4751,-25.504126 31.54927,-33.152933 16.07143,-12.202232 40.48198,-22.5460045 61.74087,-26.1621945 13.74895,-2.338733 42.5859,-0.86000502 56.9091,2.918234 21.2418,5.603265 42.9581,17.4389135 59.1502,32.2375875 l 7.2367,6.613954 15.7416,0.143221 c 18.3085,0.166576 27.0037,2.099912 42.1389,9.369364 25.323,12.162616 43.3029,34.155522 51.0776,62.477676 3.3811,12.31716 3.0968,36.25244 -0.5826,49.03561 -3.5534,12.34577 -8.708,22.75526 -15.8979,32.10556 -3.0326,3.94378 -5.5074,7.59054 -5.4995,8.1039 0.01,0.51336 2.3075,2.0325 5.1104,3.37585 6.8004,3.25921 14.1639,11.85843 17.2752,20.17417 9.0668,24.23301 -7.1603,69.73903 -27.9686,78.43328 -3.5266,1.47353 -4.5413,2.76068 -5.5985,7.10216 -7.6906,31.58011 -21.1977,55.96701 -42.9877,77.61417 -6.9024,6.85714 -15.7751,14.66468 -19.717,17.35009 l -7.1671,4.88256 v 16.62393 16.62393 h 18.7504 c 44.243,0 74.1276,7.35984 105.3015,25.93309 19.4483,11.58718 40.5606,30.85383 53.4956,48.81897 21.1874,29.42677 34.4005,68.22968 34.4005,101.02395 0,9.06491 -0.3145,10.41816 -3.0602,13.16377 l -3.0602,3.06022 h -270.6021 c -267.777829,0 -270.62782,-0.0257 -273.06392,-2.46179 z M 274.0947,565.95795 c 4.99329,-27.46597 8.81791,-50.93548 8.49914,-52.15444 -0.31877,-1.21898 -7.10867,-10.91465 -15.08866,-21.54595 -7.98,-10.63129 -14.50909,-20.2631 -14.50909,-21.40399 0,-1.84699 -2.15234,-2.07397 -19.63636,-2.07084 -20.94627,0.004 -37.42798,1.51243 -49.55844,4.53646 -27.5187,6.86018 -54.98389,22.34579 -74.82829,42.19018 -23.91459,23.91459 -41.375099,59.32336 -45.249469,91.76294 l -1.02996,8.62378 H 163.85477 265.01596 Z m 71.16118,48.62681 c 0,-0.72124 -3.6468,-21.31996 -8.1039,-45.77492 -4.4572,-24.45497 -8.1039,-44.92414 -8.1039,-45.48706 0,-0.56291 -5.461,-0.8629 -12.1354,-0.66664 l -12.1353,0.35684 -7.5996,41.76623 c -4.1798,22.97143 -8.0014,43.87013 -8.4926,46.44156 l -0.893,4.67532 h 28.7318 c 19.2668,0 28.7319,-0.43199 28.7319,-1.31133 z m 224.8848,-5.8575 c -0.4396,-3.94286 -2.0912,-12.34202 -3.6701,-18.6648 -12.9855,-52.00014 -50.8056,-93.89137 -100.9031,-111.76479 -19.8459,-7.08049 -36.4255,-9.50962 -64.9427,-9.51494 -18.7905,-0.004 -18.8145,1.3e-4 -20.214,3.07159 -0.7706,1.6913 -7.9315,11.77526 -15.9132,22.40878 l -14.5121,19.33366 8.8985,48.96784 c 4.8942,26.93233 9.1978,49.94967 9.5634,51.14967 0.626,2.05448 6.5547,2.18182 101.5787,2.18182 h 100.9139 z m -224.5732,-126.89162 13.4026,-18.00507 V 444.54258 425.2546 l -8.3189,3.13122 c -11.0701,4.16678 -27.1813,7.95827 -33.8629,7.96907 -5.9344,0.01 -22.0403,-3.74319 -32.35844,-7.5397 -3.62572,-1.33408 -7.13221,-2.42559 -7.7922,-2.42559 -0.71732,0 -1.19999,7.79066 -1.19999,19.36871 v 19.36871 l 13.12413,17.41051 13.1241,17.41051 15.2395,-0.0536 15.2395,-0.0536 13.4026,-18.00507 z m -7.7374,-72.85236 c 41.7694,-13.99403 73.6902,-45.71492 87.826,-87.27598 6.1262,-18.01178 6.8725,-25.76301 6.8725,-71.3848 v -42.38906 l -3.7583,-7.03165 c -8.6886,-16.2562 -23.195,-31.46663 -49.4879,-51.8897 l -8.9865,-6.98024 -30.4213,22.95238 c -32.9694,24.87484 -45.479,32.46641 -64.16725,38.94064 -16.06939,5.56695 -27.0117,7.75379 -45.98316,9.1898 -14.59174,1.1045 -16.07979,1.45571 -20.23889,4.77674 -8.47633,6.76828 -8.84892,8.53907 -8.84918,42.05664 -2.3e-4,29.12658 1.03439,40.45031 5.01218,54.85714 12.75844,46.20877 49.01907,82.31396 96.5946,96.18045 12.3577,3.60182 20.1722,3.16213 35.5872,-2.00236 z M 177.59016,238.36029 c -1.24137,-1.24137 -6.80964,5.12998 -8.22111,9.40679 -2.3121,7.00569 0.27267,22.92323 5.51435,33.9586 l 2.68412,5.65094 0.33924,-24.18024 c 0.18658,-13.29913 0.0441,-24.47537 -0.3166,-24.83609 z m 283.66732,26.54085 c 1.4322,-4.09563 2.9243,-11.45888 3.316,-16.36276 0.6029,-7.55007 0.295,-9.7775 -2.0095,-14.53794 -1.4968,-3.09198 -3.5372,-5.93483 -4.5343,-6.31744 -1.5471,-0.59368 -1.8128,2.80761 -1.8128,23.20287 0,15.5608 0.425,23.47348 1.2183,22.6802 0.6701,-0.67009 2.3901,-4.56931 3.8223,-8.66493 z M 203.00615,195.27099 c 6.16357,-2.76605 10.37023,-3.55739 24.14253,-4.54162 21.86162,-1.56235 37.74501,-5.65433 55.14611,-14.20709 10.90929,-5.362 20.83199,-12.11848 48.51449,-33.03407 30.3241,-22.91144 35.3755,-26.2921 39.2728,-26.28326 3.5494,0.008 6.7884,1.72018 15.6932,8.29542 24.1845,17.8575 47.126,39.68367 56.4655,53.72041 2.3953,3.6 4.6964,6.54437 5.1136,6.54304 1.5441,-0.005 9.1046,-12.34682 12.0877,-19.73237 4.3717,-10.82312 5.8994,-20.5044 5.0505,-32.00548 -2.3201,-31.43367 -21.9462,-55.861375 -53.1588,-66.164208 -7.5862,-2.504076 -24.5183,-3.12823 -36.3701,-1.340679 l -7.0713,1.06654 -10.6383,-10.020575 C 333.83278,35.505602 310.60928,24.754173 282.29479,22.864321 225.52047,19.074915 174.59847,56.840643 161.00004,112.82121 c -3.24734,13.36831 -2.85159,41.75691 0.76487,54.8671 3.35708,12.16989 9.79498,26.11915 16.74315,36.27804 l 5.19987,7.60272 5.91704,-6.47419 c 3.88558,-4.25144 8.47964,-7.62421 13.38118,-9.82389 z"
     id="path817"/>
</svg>
